<svg xmlns="http://www.w3.org/2000/svg" viewBox="0 0 800 800">
  <circle cx="80" cy="120" r="5" fill="#3B82F6" opacity="1" />
  <circle cx="190" cy="220" r="4" fill="#F59E0B" opacity="1" />
  <circle cx="320" cy="140" r="3.5" fill="#F472B6" opacity="1" />
  <circle cx="460" cy="260" r="4.5" fill="#34D399" opacity="1" />
  <circle cx="620" cy="180" r="3.5" fill="#60A5FA" opacity="1" />
  <circle cx="720" cy="300" r="4" fill="#FBBF24" opacity="1" />
  <circle cx="140" cy="420" r="4" fill="#FB7185" opacity="1" />
  <circle cx="260" cy="520" r="3.5" fill="#22D3EE" opacity="1" />
  <circle cx="380" cy="440" r="4.5" fill="#A78BFA" opacity="1" />
  <circle cx="520" cy="560" r="3.5" fill="#34D399" opacity="1" />
  <circle cx="660" cy="460" r="4" fill="#F472B6" opacity="1" />
  <circle cx="740" cy="600" r="3.5" fill="#60A5FA" opacity="1" />
  <circle cx="110" cy="670" r="4" fill="#FBBF24" opacity="1" />
  <circle cx="240" cy="690" r="3.5" fill="#F97316" opacity="1" />
  <circle cx="360" cy="640" r="4.5" fill="#22C55E" opacity="1" />
  <circle cx="500" cy="710" r="3.5" fill="#38BDF8" opacity="1" />
  <circle cx="620" cy="680" r="4" fill="#FB7185" opacity="1" />
  <circle cx="720" cy="720" r="3.5" fill="#A78BFA" opacity="1" />
  <circle cx="70" cy="300" r="3.5" fill="#60A5FA" opacity="1" />
  <circle cx="210" cy="360" r="4" fill="#F472B6" opacity="1" />
  <circle cx="340" cy="300" r="3.5" fill="#FBBF24" opacity="1" />
  <circle cx="470" cy="380" r="4" fill="#22D3EE" opacity="1" />
  <circle cx="610" cy="330" r="3.5" fill="#34D399" opacity="1" />
  <circle cx="710" cy="420" r="4" fill="#F97316" opacity="1" />
  <circle cx="120" cy="520" r="3.5" fill="#A78BFA" opacity="1" />
  <circle cx="300" cy="580" r="4" fill="#3B82F6" opacity="1" />
  <circle cx="430" cy="520" r="3.5" fill="#F59E0B" opacity="1" />
  <circle cx="560" cy="610" r="4" fill="#FB7185" opacity="1" />
  <circle cx="690" cy="560" r="3.5" fill="#22C55E" opacity="1" />
  <circle cx="160" cy="140" r="3.5" fill="#38BDF8" opacity="1" />
  <circle cx="260" cy="180" r="3" fill="#FB7185" opacity="1" />
  <circle cx="410" cy="200" r="3.5" fill="#A78BFA" opacity="1" />
  <circle cx="560" cy="140" r="3" fill="#F59E0B" opacity="1" />
  <circle cx="660" cy="240" r="3.5" fill="#22C55E" opacity="1" />
  <circle cx="780" cy="360" r="3" fill="#3B82F6" opacity="1" />
  <circle cx="60" cy="520" r="3" fill="#FBBF24" opacity="1" />
  <circle cx="180" cy="600" r="3.5" fill="#22D3EE" opacity="1" />
  <circle cx="420" cy="600" r="3" fill="#F472B6" opacity="1" />
  <circle cx="600" cy="520" r="3.5" fill="#60A5FA" opacity="1" />
  <circle cx="760" cy="520" r="3" fill="#34D399" opacity="1" />
  <circle cx="80" cy="740" r="3.5" fill="#F97316" opacity="1" />
  <circle cx="200" cy="740" r="3" fill="#3B82F6" opacity="1" />
  <circle cx="420" cy="740" r="3.5" fill="#22C55E" opacity="1" />
  <circle cx="560" cy="740" r="3" fill="#F472B6" opacity="1" />
</svg>
